PathFileType	4	(X/Y/Z)	C:\Users\italobelli\Desktop\GitHub\PTbot_officialCBL\Personal_Results\FLX03_noisy1.trc
DataRate	CameraRate	NumFrames	NumMarkers	Units	OrigDataRate	OrigDataStartFrame	OrigNumFrames
106.125000	106.125000	34	9	m	106.125000	532	850
Frame#	Time		gu		centelbow		EpL		centpxt8		centijc7		ij		ts		aa		ai
			X1	Y1	Z1	X2	Y2	Z2	X3	Y3	Z3	X4	Y4	Z4	X5	Y5	Z5	X6	Y6	Z6	X7	Y7	Z7	X8	Y8	Z8	X9	Y9	Z9

532	5.0035	-0.088927	0.050527	0.12619	0.11699	0.091155	0.24395	0.10571	0.12131	0.24207	-0.046816	-0.15316	-0.008669	-0.046816	0.031938	-0.008669	0	0	0	-0.15377	-0.0052435	0.050736	-0.11858	0.073032	0.13355	-0.13421	-0.086905	0.12713
533	5.013	-0.088749	0.050288	0.12648	0.11781	0.088421	0.24434	0.10667	0.11867	0.24269	-0.046816	-0.15316	-0.008669	-0.046816	0.031938	-0.008669	0	0	0	-0.15376	-0.0051034	0.050706	-0.1184	0.07272	0.13386	-0.13435	-0.087144	0.12675
534	5.0224	-0.088566	0.050038	0.12677	0.11859	0.085661	0.24473	0.10762	0.116	0.24331	-0.046816	-0.15316	-0.008669	-0.046816	0.031938	-0.008669	0	0	0	-0.15375	-0.0049635	0.050675	-0.11823	0.0724	0.13417	-0.13449	-0.087388	0.12636
535	5.0318	-0.088377	0.049777	0.12707	0.11934	0.082877	0.24512	0.10854	0.1133	0.24394	-0.046816	-0.15316	-0.008669	-0.046816	0.031938	-0.008669	0	0	0	-0.15374	-0.0048235	0.050642	-0.11806	0.072071	0.13449	-0.13462	-0.087638	0.12595
536	5.0412	-0.088185	0.049507	0.12736	0.12006	0.080068	0.24552	0.10943	0.11057	0.24457	-0.046816	-0.15316	-0.008669	-0.046816	0.031938	-0.008669	0	0	0	-0.15373	-0.0046836	0.050608	-0.11789	0.071734	0.13481	-0.13475	-0.087892	0.12554
537	5.0506	-0.087988	0.049227	0.12766	0.12075	0.077237	0.24591	0.1103	0.10781	0.2452	-0.046816	-0.15316	-0.008669	-0.046816	0.031938	-0.008669	0	0	0	-0.15371	-0.0045436	0.050572	-0.11772	0.07139	0.13513	-0.13487	-0.08815	0.12511
538	5.0601	-0.087787	0.048938	0.12796	0.1214	0.074384	0.2463	0.11115	0.10503	0.24584	-0.046816	-0.15316	-0.008669	-0.046816	0.031938	-0.008669	0	0	0	-0.15369	-0.0044035	0.050536	-0.11754	0.071037	0.13545	-0.13499	-0.088413	0.12467
539	5.0695	-0.087582	0.04864	0.12826	0.12202	0.07151	0.24669	0.11197	0.10223	0.24648	-0.046816	-0.15316	-0.008669	-0.046816	0.031938	-0.008669	0	0	0	-0.15366	-0.0042632	0.050497	-0.11737	0.070677	0.13578	-0.13511	-0.088679	0.12421
540	5.0789	-0.087375	0.048332	0.12856	0.1226	0.068616	0.24707	0.11277	0.099401	0.24712	-0.046816	-0.15316	-0.008669	-0.046816	0.031938	-0.008669	0	0	0	-0.15364	-0.0041228	0.050458	-0.1172	0.070309	0.1361	-0.13523	-0.088948	0.12375
541	5.0883	-0.087164	0.048016	0.12886	0.12316	0.065703	0.24746	0.11355	0.096549	0.24776	-0.046816	-0.15316	-0.008669	-0.046816	0.031938	-0.008669	0	0	0	-0.15361	-0.0039821	0.050418	-0.11703	0.069935	0.13643	-0.13535	-0.08922	0.12328
542	5.0978	-0.086951	0.047691	0.12916	0.12368	0.062772	0.24784	0.11429	0.093676	0.24841	-0.046816	-0.15316	-0.008669	-0.046816	0.031938	-0.008669	0	0	0	-0.15358	-0.0038411	0.050376	-0.11686	0.069554	0.13677	-0.13546	-0.089495	0.1228
543	5.1072	-0.086735	0.047358	0.12947	0.12417	0.059825	0.24822	0.11502	0.090783	0.24905	-0.046816	-0.15316	-0.008669	-0.046816	0.031938	-0.008669	0	0	0	-0.15355	-0.0036999	0.050334	-0.1167	0.069167	0.1371	-0.13557	-0.089771	0.12231
544	5.1166	-0.086517	0.047018	0.12977	0.12463	0.056861	0.2486	0.11571	0.087869	0.24969	-0.046816	-0.15316	-0.008669	-0.046816	0.031938	-0.008669	0	0	0	-0.15351	-0.0035582	0.05029	-0.11653	0.068774	0.13743	-0.13568	-0.09005	0.1218
545	5.126	-0.086298	0.046669	0.13008	0.12506	0.053883	0.24897	0.11639	0.084938	0.25034	-0.046816	-0.15316	-0.008669	-0.046816	0.031938	-0.008669	0	0	0	-0.15348	-0.0034162	0.050246	-0.11636	0.068375	0.13777	-0.13579	-0.09033	0.12129
546	5.1355	-0.086077	0.046313	0.13038	0.12545	0.05089	0.24934	0.11703	0.081988	0.25098	-0.046816	-0.15316	-0.008669	-0.046816	0.031938	-0.008669	0	0	0	-0.15344	-0.0032737	0.050201	-0.1162	0.06797	0.13811	-0.13589	-0.090611	0.12078
547	5.1449	-0.085855	0.04595	0.13069	0.12582	0.047885	0.24971	0.11765	0.079022	0.25162	-0.046816	-0.15316	-0.008669	-0.046816	0.031938	-0.008669	0	0	0	-0.1534	-0.0031307	0.050154	-0.11603	0.06756	0.13844	-0.136	-0.090893	0.12025
548	5.1543	-0.085632	0.04558	0.131	0.12615	0.044868	0.25008	0.11825	0.07604	0.25226	-0.046816	-0.15316	-0.008669	-0.046816	0.031938	-0.008669	0	0	0	-0.15335	-0.0029872	0.050108	-0.11587	0.067145	0.13878	-0.1361	-0.091176	0.11971
549	5.1637	-0.085408	0.045204	0.13131	0.12645	0.04184	0.25044	0.11881	0.073044	0.25289	-0.046816	-0.15316	-0.008669	-0.046816	0.031938	-0.008669	0	0	0	-0.15331	-0.0028431	0.05006	-0.11571	0.066725	0.13912	-0.1362	-0.091458	0.11917
550	5.1731	-0.085184	0.044821	0.13162	0.12672	0.038802	0.25079	0.11936	0.070034	0.25352	-0.046816	-0.15316	-0.008669	-0.046816	0.031938	-0.008669	0	0	0	-0.15326	-0.0026983	0.050012	-0.11555	0.0663	0.13946	-0.13629	-0.09174	0.11862
551	5.1826	-0.084961	0.044432	0.13192	0.12696	0.035755	0.25114	0.11987	0.067012	0.25415	-0.046816	-0.15316	-0.008669	-0.046816	0.031938	-0.008669	0	0	0	-0.15322	-0.0025529	0.049963	-0.11539	0.065872	0.1398	-0.13639	-0.092021	0.11806
552	5.192	-0.084737	0.044037	0.13223	0.12717	0.0327	0.25149	0.12036	0.063978	0.25477	-0.046816	-0.15316	-0.008669	-0.046816	0.031938	-0.008669	0	0	0	-0.15317	-0.0024068	0.049914	-0.11524	0.065439	0.14014	-0.13649	-0.092301	0.1175
553	5.2014	-0.084514	0.043636	0.13254	0.12735	0.029638	0.25183	0.12082	0.060934	0.25539	-0.046816	-0.15316	-0.008669	-0.046816	0.031938	-0.008669	0	0	0	-0.15311	-0.0022599	0.049864	-0.11509	0.065003	0.14048	-0.13658	-0.09258	0.11693
554	5.2108	-0.084293	0.04323	0.13285	0.1275	0.026571	0.25217	0.12125	0.05788	0.25601	-0.046816	-0.15316	-0.008669	-0.046816	0.031938	-0.008669	0	0	0	-0.15306	-0.0021122	0.049814	-0.11494	0.064563	0.14082	-0.13668	-0.092857	0.11635
555	5.2203	-0.084072	0.042819	0.13317	0.12762	0.023498	0.2525	0.12165	0.054818	0.25662	-0.046816	-0.15316	-0.008669	-0.046816	0.031938	-0.008669	0	0	0	-0.15301	-0.0019636	0.049764	-0.11479	0.06412	0.14116	-0.13677	-0.093132	0.11577
556	5.2297	-0.083854	0.042403	0.13348	0.12771	0.020421	0.25283	0.12203	0.051748	0.25722	-0.046816	-0.15316	-0.008669	-0.046816	0.031938	-0.008669	0	0	0	-0.15295	-0.0018142	0.049713	-0.11464	0.063674	0.1415	-0.13686	-0.093404	0.11519
557	5.2391	-0.083637	0.041982	0.13379	0.12777	0.017342	0.25315	0.12238	0.048672	0.25782	-0.046816	-0.15316	-0.008669	-0.046816	0.031938	-0.008669	0	0	0	-0.1529	-0.0016638	0.049662	-0.1145	0.063226	0.14184	-0.13695	-0.093673	0.11459
558	5.2485	-0.083422	0.041557	0.1341	0.1278	0.01426	0.25346	0.1227	0.045591	0.2584	-0.046816	-0.15316	-0.008669	-0.046816	0.031938	-0.008669	0	0	0	-0.15284	-0.0015124	0.04961	-0.11435	0.062775	0.14218	-0.13704	-0.093939	0.114
559	5.258	-0.08321	0.041128	0.13441	0.1278	0.011178	0.25376	0.12299	0.042505	0.25899	-0.046816	-0.15316	-0.008669	-0.046816	0.031938	-0.008669	0	0	0	-0.15278	-0.0013601	0.049559	-0.11421	0.062322	0.14251	-0.13713	-0.094202	0.1134
560	5.2674	-0.083	0.040695	0.13472	0.12777	0.0080953	0.25406	0.12326	0.039416	0.25956	-0.046816	-0.15316	-0.008669	-0.046816	0.031938	-0.008669	0	0	0	-0.15272	-0.0012066	0.049507	-0.11408	0.061868	0.14285	-0.13722	-0.09446	0.11279
561	5.2768	-0.082794	0.040259	0.13503	0.12771	0.0050138	0.25436	0.12349	0.036325	0.26012	-0.046816	-0.15316	-0.008669	-0.046816	0.031938	-0.008669	0	0	0	-0.15266	-0.0010521	0.049455	-0.11394	0.061411	0.14318	-0.13731	-0.094715	0.11219
562	5.2862	-0.082591	0.039819	0.13534	0.12762	0.0019344	0.25464	0.1237	0.033232	0.26068	-0.046816	-0.15316	-0.008669	-0.046816	0.031938	-0.008669	0	0	0	-0.1526	-0.00089635	0.049404	-0.11381	0.060954	0.14352	-0.1374	-0.094964	0.11158
563	5.2956	-0.082392	0.039376	0.13565	0.1275	-0.001142	0.25492	0.12388	0.030139	0.26123	-0.046816	-0.15316	-0.008669	-0.046816	0.031938	-0.008669	0	0	0	-0.15253	-0.00073944	0.049352	-0.11369	0.060495	0.14385	-0.13749	-0.095209	0.11096
564	5.3051	-0.082197	0.038931	0.13596	0.12736	-0.0042143	0.25519	0.12403	0.027047	0.26176	-0.046816	-0.15316	-0.008669	-0.046816	0.031938	-0.008669	0	0	0	-0.15247	-0.00058129	0.049301	-0.11356	0.060036	0.14418	-0.13758	-0.095448	0.11035
565	5.3145	-0.082006	0.038482	0.13626	0.12718	-0.0072817	0.25545	0.12414	0.023957	0.26229	-0.046816	-0.15316	-0.008669	-0.046816	0.031938	-0.008669	0	0	0	-0.15241	-0.00042184	0.04925	-0.11344	0.059576	0.1445	-0.13767	-0.095681	0.10973
